<?xml version="1.0" encoding="UTF-8" standalone="no"?>
<svg
   xmlns:dc="http://purl.org/dc/elements/1.1/"
   xmlns:cc="http://creativecommons.org/ns#"
   xmlns:rdf="http://www.w3.org/1999/02/22-rdf-syntax-ns#"
   xmlns:svg="http://www.w3.org/2000/svg"
   xmlns="http://www.w3.org/2000/svg"
   width="402.94662"
   height="96.671127"
   viewBox="0 0 402.94662 96.671127"
   version="1.1"
   preserveAspectRatio="xMidYMid meet"
   id="svg2">
  <metadata
     id="metadata38">
    <rdf:rdf>
      <cc:work
         rdf:about="">
        <dc:format>image/svg+xml</dc:format>
        <dc:type
           rdf:resource="http://purl.org/dc/dcmitype/StillImage" />
        <dc:title />
      </cc:work>
    </rdf:rdf>
    <rdf:RDF>
      <cc:Work
         rdf:about="">
        <dc:format>image/svg+xml</dc:format>
        <dc:type
           rdf:resource="http://purl.org/dc/dcmitype/StillImage" />
        <dc:title></dc:title>
      </cc:Work>
    </rdf:RDF>
  </metadata>
  <defs
     id="defs36" />
  <g
     style="fill:#de4f4f;fill-rule:evenodd;opacity:1;fill-opacity:1"
     id="g6"
     transform="matrix(0.78700511,0,0,0.78700511,238.88978,-0.16906851)">
    <path
       style="fill:#de4f4f;fill-opacity:1"
       id="path8"
       d="M 0.21500326,0.21482518 107.50163,113.85734 c 0,0 3.65506,2.5779 6.4501,-0.42965 2.79504,-3.00755 0.64501,-6.0151 0.64501,-6.0151 L 0.21500326,0.21482518 l 0,0 z" />
    <path
       style="fill:#de4f4f;fill-opacity:1"
       id="path10"
       d="m 34.185518,10.956084 81.701242,88.078322 c 0,0 3.65505,2.577904 6.4501,-0.429651 2.79504,-3.007552 0.64501,-6.015105 0.64501,-6.015105 l -88.796352,-81.633566 0,0 z" />
    <path
       style="fill:#de4f4f;fill-opacity:1"
       id="path12"
       d="M 10.320157,33.942378 92.021396,122.0207 c 0,0 3.655055,2.5779 6.450098,-0.42965 2.795046,-3.00755 0.64501,-6.01511 0.64501,-6.01511 l -88.796347,-81.633562 0,0 z" />
    <path
       style="fill:#de4f4f;fill-opacity:1"
       id="path14"
       d="m 62.903178,20.193566 57.079782,61.535065 c 0,0 2.55356,1.801026 4.50629,-0.300171 1.95273,-2.101197 0.45063,-4.202395 0.45063,-4.202395 l -62.036702,-57.032499 0,0 z" />
    <path
       style="fill:#de4f4f;fill-opacity:1"
       id="path16"
       d="m 18.182499,60.580699 57.079778,61.535061 c 0,0 2.553569,1.80103 4.506298,-0.30017 1.95273,-2.1012 0.45063,-4.20239 0.45063,-4.20239 l -62.036706,-57.032501 0,0 z" />
    <path
       style="fill:#de4f4f;fill-opacity:1"
       id="path18"
       d="m 92.236399,33.512727 25.870481,27.974471 c 0,0 1.26316,0.843915 2.22911,-0.140653 0.96596,-0.984567 0.22292,-1.969135 0.22292,-1.969135 l -28.322511,-25.864683 0,0 z" />
    <path
       style="fill:#de4f4f;fill-opacity:1"
       id="path20"
       d="m 32.465493,88.937622 25.870476,27.974468 c 0,0 1.263168,0.84392 2.22912,-0.14065 0.965952,-0.98457 0.222912,-1.96913 0.222912,-1.96913 l -28.322508,-25.864688 0,0 z" />
  </g>
  <g
     style="fill:#ffffff; fill-rule:evenodd; stroke:none; fill-opacity:1"
     id="g22"
     transform="matrix(0.78700511,0,0,0.78700511,-1.0736336e-8,34.604027)">
    <path
       id="path24"
       d="m 446.17143,2.0455472 0,75.4337398 17.06666,2e-6 0,-24.332675 12.8,0 16.45715,24.332673 19.50476,0 -18.28571,-26.157624 c 0,0 16.23771,-6.417741 16.23771,-23.825743 C 509.952,2.9199208 487.61905,2.048 487.61905,2.048 l -41.44762,-0.00245 0,0 z m 17.06666,14.6020568 0,21.899406 21.94286,0 c 0,0 8.38705,-9.72e-4 8.38705,-10.950676 0,-11.365386 -10.21562,-10.94873 -10.21562,-10.94873 l -20.11429,0 0,0 z"
       style="stroke:none; fill:#ffffff; fill-opacity:1" />
    <path
       id="path26"
       d="m 257.21905,2.048 0,75.431287 57.29524,0 0,-14.599604 -40.22858,0 0,-15.816238 34.74286,0 0,-14.599604 -34.74286,0 0,-15.827931 40.22858,0 0,-14.58791 -57.29524,0 0,0 z"
       style="stroke:none; fill:#ffffff; fill-opacity:1" />
    <path
       id="path28"
       d="m 174.32381,2.048 0,14.599604 22.55238,0 0,60.831683 17.06667,0 0,-60.831683 22.55238,0 0,-14.599604 -62.17143,0 0,0 z"
       style="stroke:none; fill:#ffffff; fill-opacity:1" />
    <path
       id="path30"
       d="m 96.304762,2.048 0,75.431287 57.295238,0 0,-14.599604 -40.22857,0 0,-15.816238 34.74286,0 0,-14.599604 -34.74286,0 0,-15.827931 40.22857,0 0,-14.58791 -57.295238,0 0,0 z"
       style="stroke:none; fill:#ffffff; fill-opacity:1" />
    <path
       id="path32"
       d="m 1.3642015e-8,2.0460995 0,75.4350875 L 17.055242,77.479839 l 0,-47.451165 20.723809,30.415841 20.735235,-30.415842 0,47.452514 17.066666,2e-6 0,-75.4350904 -17.066666,0 L 37.779051,33.070258 17.055242,2.0460986 1.3642015e-8,2.0460995 l 0,0 z"
       style="stroke:none; fill:#ffffff; fill-opacity:1" />
  </g>
</svg>
